<mxfile host="app.diagrams.net" modified="2022-01-11T09:23:08.749Z" agent="5.0 (Windows NT 10.0; Win64; x64) AppleWebKit/537.36 (KHTML, like Gecko) Chrome/94.0.4606.85 YaBrowser/21.11.4.727 Yowser/2.5 Safari/537.36" etag="uyzr4X_A9nLxFL8qJ-UH" version="16.2.4" type="github">
  <diagram id="fVNg70pSi3xT7uggjx47" name="Page-1">
    <mxGraphModel dx="1406" dy="768" grid="1" gridSize="10" guides="1" tooltips="1" connect="1" arrows="1" fold="1" page="1" pageScale="1" pageWidth="827" pageHeight="1169" math="0" shadow="0">
      <root>
        <mxCell id="0" />
        <mxCell id="1" parent="0" />
        <mxCell id="jtKv2uObJtnphPKGFN6Y-1" value="пользователь" style="shape=umlActor;verticalLabelPosition=bottom;verticalAlign=top;html=1;" vertex="1" parent="1">
          <mxGeometry x="350" y="290" width="30" height="60" as="geometry" />
        </mxCell>
        <mxCell id="jtKv2uObJtnphPKGFN6Y-2" value="клиент" style="shape=umlActor;verticalLabelPosition=bottom;verticalAlign=top;html=1;" vertex="1" parent="1">
          <mxGeometry x="190" y="180" width="30" height="60" as="geometry" />
        </mxCell>
        <mxCell id="jtKv2uObJtnphPKGFN6Y-3" value="сборщик" style="shape=umlActor;verticalLabelPosition=bottom;verticalAlign=top;html=1;" vertex="1" parent="1">
          <mxGeometry x="190" y="480" width="30" height="60" as="geometry" />
        </mxCell>
        <mxCell id="jtKv2uObJtnphPKGFN6Y-4" value="администратор" style="shape=umlActor;verticalLabelPosition=bottom;verticalAlign=top;html=1;" vertex="1" parent="1">
          <mxGeometry x="510" y="480" width="30" height="60" as="geometry" />
        </mxCell>
        <mxCell id="jtKv2uObJtnphPKGFN6Y-11" value="" style="endArrow=none;html=1;rounded=0;" edge="1" parent="1" target="jtKv2uObJtnphPKGFN6Y-1">
          <mxGeometry width="50" height="50" relative="1" as="geometry">
            <mxPoint x="210" y="490" as="sourcePoint" />
            <mxPoint x="260" y="440" as="targetPoint" />
          </mxGeometry>
        </mxCell>
        <mxCell id="jtKv2uObJtnphPKGFN6Y-12" value="" style="endArrow=none;html=1;rounded=0;" edge="1" parent="1" source="jtKv2uObJtnphPKGFN6Y-2" target="jtKv2uObJtnphPKGFN6Y-1">
          <mxGeometry width="50" height="50" relative="1" as="geometry">
            <mxPoint x="310" y="300" as="sourcePoint" />
            <mxPoint x="360" y="250" as="targetPoint" />
          </mxGeometry>
        </mxCell>
        <mxCell id="jtKv2uObJtnphPKGFN6Y-13" value="" style="endArrow=none;html=1;rounded=0;" edge="1" parent="1" source="jtKv2uObJtnphPKGFN6Y-1" target="jtKv2uObJtnphPKGFN6Y-4">
          <mxGeometry width="50" height="50" relative="1" as="geometry">
            <mxPoint x="380" y="390" as="sourcePoint" />
            <mxPoint x="430" y="340" as="targetPoint" />
          </mxGeometry>
        </mxCell>
        <mxCell id="jtKv2uObJtnphPKGFN6Y-19" value="" style="rounded=1;whiteSpace=wrap;html=1;" vertex="1" parent="1">
          <mxGeometry x="285" y="210" width="160" height="60" as="geometry" />
        </mxCell>
        <mxCell id="jtKv2uObJtnphPKGFN6Y-20" value="" style="rounded=1;whiteSpace=wrap;html=1;" vertex="1" parent="1">
          <mxGeometry x="10" y="420" width="180" height="60" as="geometry" />
        </mxCell>
        <mxCell id="jtKv2uObJtnphPKGFN6Y-22" value="" style="rounded=1;whiteSpace=wrap;html=1;" vertex="1" parent="1">
          <mxGeometry x="540" y="400" width="190" height="60" as="geometry" />
        </mxCell>
        <mxCell id="jtKv2uObJtnphPKGFN6Y-23" value="" style="rounded=1;whiteSpace=wrap;html=1;" vertex="1" parent="1">
          <mxGeometry x="540" y="620" width="190" height="60" as="geometry" />
        </mxCell>
        <mxCell id="jtKv2uObJtnphPKGFN6Y-24" value="просмотр базы заказов" style="text;html=1;strokeColor=none;fillColor=none;align=center;verticalAlign=middle;whiteSpace=wrap;rounded=0;" vertex="1" parent="1">
          <mxGeometry x="550" y="410" width="170" height="40" as="geometry" />
        </mxCell>
        <mxCell id="jtKv2uObJtnphPKGFN6Y-25" value="назначение заказа на сборщика" style="text;html=1;strokeColor=none;fillColor=none;align=center;verticalAlign=middle;whiteSpace=wrap;rounded=0;" vertex="1" parent="1">
          <mxGeometry x="550" y="635" width="170" height="30" as="geometry" />
        </mxCell>
        <mxCell id="jtKv2uObJtnphPKGFN6Y-26" value="закрытие собранного заказа" style="text;html=1;strokeColor=none;fillColor=none;align=center;verticalAlign=middle;whiteSpace=wrap;rounded=0;" vertex="1" parent="1">
          <mxGeometry x="20" y="430" width="160" height="30" as="geometry" />
        </mxCell>
        <mxCell id="jtKv2uObJtnphPKGFN6Y-27" value="оформление заказа" style="text;html=1;strokeColor=none;fillColor=none;align=center;verticalAlign=middle;whiteSpace=wrap;rounded=0;" vertex="1" parent="1">
          <mxGeometry x="300" y="225" width="140" height="30" as="geometry" />
        </mxCell>
        <mxCell id="jtKv2uObJtnphPKGFN6Y-29" value="" style="endArrow=none;html=1;rounded=0;" edge="1" parent="1">
          <mxGeometry width="50" height="50" relative="1" as="geometry">
            <mxPoint x="540" y="510" as="sourcePoint" />
            <mxPoint x="590" y="460" as="targetPoint" />
          </mxGeometry>
        </mxCell>
        <mxCell id="jtKv2uObJtnphPKGFN6Y-30" value="" style="endArrow=none;html=1;rounded=0;" edge="1" parent="1">
          <mxGeometry width="50" height="50" relative="1" as="geometry">
            <mxPoint x="130" y="490" as="sourcePoint" />
            <mxPoint x="180" y="520" as="targetPoint" />
          </mxGeometry>
        </mxCell>
        <mxCell id="jtKv2uObJtnphPKGFN6Y-31" value="" style="endArrow=none;html=1;rounded=0;exitX=0.75;exitY=0.1;exitDx=0;exitDy=0;exitPerimeter=0;" edge="1" parent="1" source="jtKv2uObJtnphPKGFN6Y-1">
          <mxGeometry width="50" height="50" relative="1" as="geometry">
            <mxPoint x="390" y="330" as="sourcePoint" />
            <mxPoint x="390" y="280" as="targetPoint" />
          </mxGeometry>
        </mxCell>
        <mxCell id="jtKv2uObJtnphPKGFN6Y-32" value="" style="endArrow=none;html=1;rounded=0;entryX=0.337;entryY=-0.033;entryDx=0;entryDy=0;entryPerimeter=0;" edge="1" parent="1" source="jtKv2uObJtnphPKGFN6Y-4" target="jtKv2uObJtnphPKGFN6Y-23">
          <mxGeometry width="50" height="50" relative="1" as="geometry">
            <mxPoint x="520" y="610" as="sourcePoint" />
            <mxPoint x="570" y="560" as="targetPoint" />
          </mxGeometry>
        </mxCell>
        <mxCell id="jtKv2uObJtnphPKGFN6Y-33" value="" style="rounded=1;whiteSpace=wrap;html=1;" vertex="1" parent="1">
          <mxGeometry x="10" y="590" width="190" height="60" as="geometry" />
        </mxCell>
        <mxCell id="jtKv2uObJtnphPKGFN6Y-34" value="просмотр базы заказов" style="text;html=1;strokeColor=none;fillColor=none;align=center;verticalAlign=middle;whiteSpace=wrap;rounded=0;" vertex="1" parent="1">
          <mxGeometry x="20" y="600" width="170" height="40" as="geometry" />
        </mxCell>
        <mxCell id="jtKv2uObJtnphPKGFN6Y-35" value="" style="endArrow=none;html=1;rounded=0;" edge="1" parent="1">
          <mxGeometry width="50" height="50" relative="1" as="geometry">
            <mxPoint x="130" y="590" as="sourcePoint" />
            <mxPoint x="180" y="540" as="targetPoint" />
          </mxGeometry>
        </mxCell>
      </root>
    </mxGraphModel>
  </diagram>
</mxfile>
